<?xml version="1.0" encoding="UTF-8" standalone="no"?><svg xmlns="http://www.w3.org/2000/svg" xmlns:xlink="http://www.w3.org/1999/xlink" contentScriptType="application/ecmascript" contentStyleType="text/css" height="783px" preserveAspectRatio="none" style="width:745px;height:783px;" version="1.1" viewBox="0 0 745 783" width="745px" zoomAndPan="magnify"><defs><filter height="300%" id="f18zq03ani7xpz" width="300%" x="-1" y="-1"><feGaussianBlur result="blurOut" stdDeviation="2.0"/><feColorMatrix in="blurOut" result="blurOut2" type="matrix" values="0 0 0 0 0 0 0 0 0 0 0 0 0 0 0 0 0 0 .4 0"/><feOffset dx="4.0" dy="4.0" in="blurOut2" result="blurOut3"/><feBlend in="SourceGraphic" in2="blurOut3" mode="normal"/></filter></defs><g><rect fill="#FFFFFF" filter="url(#f18zq03ani7xpz)" height="174.7969" style="stroke: #FFFFFF; stroke-width: 1.0;" width="10" x="56.5" y="48.2969"/><line style="stroke: #A80036; stroke-width: 1.0;" x1="56.5" x2="56.5" y1="48.2969" y2="223.0938"/><line style="stroke: #A80036; stroke-width: 1.0;" x1="66.5" x2="66.5" y1="48.2969" y2="223.0938"/><line style="stroke: #A80036; stroke-width: 1.0;" x1="56.5" x2="66.5" y1="48.2969" y2="48.2969"/><rect fill="#FFFFFF" filter="url(#f18zq03ani7xpz)" height="428.7266" style="stroke: #FFFFFF; stroke-width: 1.0;" width="10" x="56.5" y="263.8984"/><line style="stroke: #A80036; stroke-width: 1.0;" x1="56.5" x2="56.5" y1="263.8984" y2="692.625"/><line style="stroke: #A80036; stroke-width: 1.0;" x1="66.5" x2="66.5" y1="263.8984" y2="692.625"/><rect fill="#FFFFFF" filter="url(#f18zq03ani7xpz)" height="1" style="stroke: #FFFFFF; stroke-width: 1.0;" width="10" x="56.5" y="733.4297"/><line style="stroke: #A80036; stroke-width: 1.0;" x1="56.5" x2="56.5" y1="733.4297" y2="734.4297"/><line style="stroke: #A80036; stroke-width: 1.0;" x1="66.5" x2="66.5" y1="733.4297" y2="734.4297"/><rect fill="#FA8072" filter="url(#f18zq03ani7xpz)" height="68.2656" style="stroke: #A80036; stroke-width: 1.0;" width="10" x="61.5" y="489.8281"/><rect fill="#FF0000" filter="url(#f18zq03ani7xpz)" height="68.2656" style="stroke: #A80036; stroke-width: 1.0;" width="10" x="375.5" y="285.0313"/><rect fill="#FA8072" filter="url(#f18zq03ani7xpz)" height="204.7969" style="stroke: #A80036; stroke-width: 1.0;" width="10" x="432" y="421.5625"/><rect fill="#FA8072" filter="url(#f18zq03ani7xpz)" height="68.2656" style="stroke: #A80036; stroke-width: 1.0;" width="10" x="641" y="353.2969"/><rect fill="#FA8072" filter="url(#f18zq03ani7xpz)" height="29.1328" style="stroke: #A80036; stroke-width: 1.0;" width="10" x="641" y="626.3594"/><line style="stroke: #A80036; stroke-width: 1.0;" x1="61" x2="61" y1="38.2969" y2="223.0938"/><line style="stroke: #A80036; stroke-width: 1.0; stroke-dasharray: 1.0,4.0;" x1="61" x2="61" y1="223.0938" y2="263.8984"/><line style="stroke: #A80036; stroke-width: 1.0;" x1="61" x2="61" y1="263.8984" y2="692.625"/><line style="stroke: #A80036; stroke-width: 1.0; stroke-dasharray: 1.0,4.0;" x1="61" x2="61" y1="692.625" y2="733.4297"/><line style="stroke: #A80036; stroke-width: 1.0;" x1="61" x2="61" y1="733.4297" y2="743.4297"/><line style="stroke: #A80036; stroke-width: 1.0;" x1="380" x2="380" y1="38.2969" y2="223.0938"/><line style="stroke: #A80036; stroke-width: 1.0; stroke-dasharray: 1.0,4.0;" x1="380" x2="380" y1="223.0938" y2="263.8984"/><line style="stroke: #A80036; stroke-width: 1.0;" x1="380" x2="380" y1="263.8984" y2="692.625"/><line style="stroke: #A80036; stroke-width: 1.0; stroke-dasharray: 1.0,4.0;" x1="380" x2="380" y1="692.625" y2="733.4297"/><line style="stroke: #A80036; stroke-width: 1.0;" x1="380" x2="380" y1="733.4297" y2="743.4297"/><line style="stroke: #A80036; stroke-width: 1.0;" x1="437" x2="437" y1="38.2969" y2="223.0938"/><line style="stroke: #A80036; stroke-width: 1.0; stroke-dasharray: 1.0,4.0;" x1="437" x2="437" y1="223.0938" y2="263.8984"/><line style="stroke: #A80036; stroke-width: 1.0;" x1="437" x2="437" y1="263.8984" y2="692.625"/><line style="stroke: #A80036; stroke-width: 1.0; stroke-dasharray: 1.0,4.0;" x1="437" x2="437" y1="692.625" y2="733.4297"/><line style="stroke: #A80036; stroke-width: 1.0;" x1="437" x2="437" y1="733.4297" y2="743.4297"/><line style="stroke: #A80036; stroke-width: 1.0;" x1="646" x2="646" y1="38.2969" y2="223.0938"/><line style="stroke: #A80036; stroke-width: 1.0; stroke-dasharray: 1.0,4.0;" x1="646" x2="646" y1="223.0938" y2="263.8984"/><line style="stroke: #A80036; stroke-width: 1.0;" x1="646" x2="646" y1="263.8984" y2="692.625"/><line style="stroke: #A80036; stroke-width: 1.0; stroke-dasharray: 1.0,4.0;" x1="646" x2="646" y1="692.625" y2="733.4297"/><line style="stroke: #A80036; stroke-width: 1.0;" x1="646" x2="646" y1="733.4297" y2="743.4297"/><rect fill="#FEFECE" filter="url(#f18zq03ani7xpz)" height="30.2969" style="stroke: #A80036; stroke-width: 1.5;" width="87" x="16" y="3"/><text fill="#000000" font-family="sans-serif" font-size="14" lengthAdjust="spacingAndGlyphs" textLength="73" x="23" y="22.9951">SDEI client</text><rect fill="#FEFECE" filter="url(#f18zq03ani7xpz)" height="30.2969" style="stroke: #A80036; stroke-width: 1.5;" width="87" x="16" y="742.4297"/><text fill="#000000" font-family="sans-serif" font-size="14" lengthAdjust="spacingAndGlyphs" textLength="73" x="23" y="762.4248">SDEI client</text><rect fill="#FEFECE" filter="url(#f18zq03ani7xpz)" height="30.2969" style="stroke: #A80036; stroke-width: 1.5;" width="39" x="359" y="3"/><text fill="#000000" font-family="sans-serif" font-size="14" lengthAdjust="spacingAndGlyphs" textLength="25" x="366" y="22.9951">EL3</text><rect fill="#FEFECE" filter="url(#f18zq03ani7xpz)" height="30.2969" style="stroke: #A80036; stroke-width: 1.5;" width="39" x="359" y="742.4297"/><text fill="#000000" font-family="sans-serif" font-size="14" lengthAdjust="spacingAndGlyphs" textLength="25" x="366" y="762.4248">EL3</text><rect fill="#FEFECE" filter="url(#f18zq03ani7xpz)" height="30.2969" style="stroke: #A80036; stroke-width: 1.5;" width="46" x="412" y="3"/><text fill="#000000" font-family="sans-serif" font-size="14" lengthAdjust="spacingAndGlyphs" textLength="32" x="419" y="22.9951">SDEI</text><rect fill="#FEFECE" filter="url(#f18zq03ani7xpz)" height="30.2969" style="stroke: #A80036; stroke-width: 1.5;" width="46" x="412" y="742.4297"/><text fill="#000000" font-family="sans-serif" font-size="14" lengthAdjust="spacingAndGlyphs" textLength="32" x="419" y="762.4248">SDEI</text><rect fill="#FEFECE" filter="url(#f18zq03ani7xpz)" height="30.2969" style="stroke: #A80036; stroke-width: 1.5;" width="86" x="601" y="3"/><text fill="#000000" font-family="sans-serif" font-size="14" lengthAdjust="spacingAndGlyphs" textLength="72" x="608" y="22.9951">RAS Driver</text><rect fill="#FEFECE" filter="url(#f18zq03ani7xpz)" height="30.2969" style="stroke: #A80036; stroke-width: 1.5;" width="86" x="601" y="742.4297"/><text fill="#000000" font-family="sans-serif" font-size="14" lengthAdjust="spacingAndGlyphs" textLength="72" x="608" y="762.4248">RAS Driver</text><rect fill="#FFFFFF" filter="url(#f18zq03ani7xpz)" height="174.7969" style="stroke: #FFFFFF; stroke-width: 1.0;" width="10" x="56.5" y="48.2969"/><line style="stroke: #A80036; stroke-width: 1.0;" x1="56.5" x2="56.5" y1="48.2969" y2="223.0938"/><line style="stroke: #A80036; stroke-width: 1.0;" x1="66.5" x2="66.5" y1="48.2969" y2="223.0938"/><line style="stroke: #A80036; stroke-width: 1.0;" x1="56.5" x2="66.5" y1="48.2969" y2="48.2969"/><rect fill="#FFFFFF" filter="url(#f18zq03ani7xpz)" height="428.7266" style="stroke: #FFFFFF; stroke-width: 1.0;" width="10" x="56.5" y="263.8984"/><line style="stroke: #A80036; stroke-width: 1.0;" x1="56.5" x2="56.5" y1="263.8984" y2="692.625"/><line style="stroke: #A80036; stroke-width: 1.0;" x1="66.5" x2="66.5" y1="263.8984" y2="692.625"/><rect fill="#FFFFFF" filter="url(#f18zq03ani7xpz)" height="1" style="stroke: #FFFFFF; stroke-width: 1.0;" width="10" x="56.5" y="733.4297"/><line style="stroke: #A80036; stroke-width: 1.0;" x1="56.5" x2="56.5" y1="733.4297" y2="734.4297"/><line style="stroke: #A80036; stroke-width: 1.0;" x1="66.5" x2="66.5" y1="733.4297" y2="734.4297"/><rect fill="#FA8072" filter="url(#f18zq03ani7xpz)" height="68.2656" style="stroke: #A80036; stroke-width: 1.0;" width="10" x="61.5" y="489.8281"/><rect fill="#FF0000" filter="url(#f18zq03ani7xpz)" height="68.2656" style="stroke: #A80036; stroke-width: 1.0;" width="10" x="375.5" y="285.0313"/><rect fill="#FA8072" filter="url(#f18zq03ani7xpz)" height="204.7969" style="stroke: #A80036; stroke-width: 1.0;" width="10" x="432" y="421.5625"/><rect fill="#FA8072" filter="url(#f18zq03ani7xpz)" height="68.2656" style="stroke: #A80036; stroke-width: 1.0;" width="10" x="641" y="353.2969"/><rect fill="#FA8072" filter="url(#f18zq03ani7xpz)" height="29.1328" style="stroke: #A80036; stroke-width: 1.0;" width="10" x="641" y="626.3594"/><polygon fill="#A80036" points="368.5,65.4297,378.5,69.4297,368.5,73.4297,372.5,69.4297" style="stroke: #A80036; stroke-width: 1.0;"/><line style="stroke: #A80036; stroke-width: 1.0;" x1="66.5" x2="374.5" y1="69.4297" y2="69.4297"/><text fill="#000000" font-family="sans-serif" font-size="13" font-weight="bold" lengthAdjust="spacingAndGlyphs" textLength="21" x="73.5" y="64.3638">[1]</text><text fill="#000000" font-family="sans-serif" font-size="13" font-weight="bold" lengthAdjust="spacingAndGlyphs" textLength="164" x="98.5" y="64.3638">SDEI_EVENT_REGISTER</text><text fill="#000000" font-family="sans-serif" font-size="13" lengthAdjust="spacingAndGlyphs" textLength="101" x="262.5" y="64.3638">(ev, handler, ...)</text><polygon fill="#A80036" points="77.5,94.5625,67.5,98.5625,77.5,102.5625,73.5,98.5625" style="stroke: #A80036; stroke-width: 1.0;"/><line style="stroke: #A80036; stroke-width: 1.0;" x1="71.5" x2="379.5" y1="98.5625" y2="98.5625"/><text fill="#000000" font-family="sans-serif" font-size="13" font-weight="bold" lengthAdjust="spacingAndGlyphs" textLength="21" x="83.5" y="93.4966">[2]</text><text fill="#000000" font-family="sans-serif" font-size="13" lengthAdjust="spacingAndGlyphs" textLength="51" x="108.5" y="93.4966">success</text><polygon fill="#A80036" points="368.5,123.6953,378.5,127.6953,368.5,131.6953,372.5,127.6953" style="stroke: #A80036; stroke-width: 1.0;"/><line style="stroke: #A80036; stroke-width: 1.0;" x1="66.5" x2="374.5" y1="127.6953" y2="127.6953"/><text fill="#000000" font-family="sans-serif" font-size="13" font-weight="bold" lengthAdjust="spacingAndGlyphs" textLength="21" x="73.5" y="122.6294">[3]</text><text fill="#000000" font-family="sans-serif" font-size="13" font-weight="bold" lengthAdjust="spacingAndGlyphs" textLength="151" x="98.5" y="122.6294">SDEI_EVENT_ENABLE</text><text fill="#000000" font-family="sans-serif" font-size="13" lengthAdjust="spacingAndGlyphs" textLength="25" x="249.5" y="122.6294">(ev)</text><polygon fill="#A80036" points="77.5,152.8281,67.5,156.8281,77.5,160.8281,73.5,156.8281" style="stroke: #A80036; stroke-width: 1.0;"/><line style="stroke: #A80036; stroke-width: 1.0;" x1="71.5" x2="379.5" y1="156.8281" y2="156.8281"/><text fill="#000000" font-family="sans-serif" font-size="13" font-weight="bold" lengthAdjust="spacingAndGlyphs" textLength="21" x="83.5" y="151.7622">[4]</text><text fill="#000000" font-family="sans-serif" font-size="13" lengthAdjust="spacingAndGlyphs" textLength="51" x="108.5" y="151.7622">success</text><polygon fill="#A80036" points="368.5,181.9609,378.5,185.9609,368.5,189.9609,372.5,185.9609" style="stroke: #A80036; stroke-width: 1.0;"/><line style="stroke: #A80036; stroke-width: 1.0;" x1="66.5" x2="374.5" y1="185.9609" y2="185.9609"/><text fill="#000000" font-family="sans-serif" font-size="13" font-weight="bold" lengthAdjust="spacingAndGlyphs" textLength="21" x="73.5" y="180.895">[5]</text><text fill="#000000" font-family="sans-serif" font-size="13" font-weight="bold" lengthAdjust="spacingAndGlyphs" textLength="129" x="98.5" y="180.895">SDEI_PE_UNMASK</text><text fill="#000000" font-family="sans-serif" font-size="13" lengthAdjust="spacingAndGlyphs" textLength="10" x="227.5" y="180.895">()</text><polygon fill="#A80036" points="77.5,211.0938,67.5,215.0938,77.5,219.0938,73.5,215.0938" style="stroke: #A80036; stroke-width: 1.0;"/><line style="stroke: #A80036; stroke-width: 1.0;" x1="71.5" x2="379.5" y1="215.0938" y2="215.0938"/><text fill="#000000" font-family="sans-serif" font-size="13" font-weight="bold" lengthAdjust="spacingAndGlyphs" textLength="21" x="83.5" y="210.0278">[6]</text><text fill="#000000" font-family="sans-serif" font-size="13" lengthAdjust="spacingAndGlyphs" textLength="8" x="108.5" y="210.0278">1</text><text fill="#000000" font-family="sans-serif" font-size="11" lengthAdjust="spacingAndGlyphs" textLength="142" x="282.75" y="247.3042">&lt;&lt;Business as usual&gt;&gt;</text><polygon fill="#A80036" points="396.5,281.0313,386.5,285.0313,396.5,289.0313,392.5,285.0313" style="stroke: #A80036; stroke-width: 1.0;"/><line style="stroke: #A80036; stroke-width: 1.0; stroke-dasharray: 2.0,2.0;" x1="390.5" x2="733" y1="285.0313" y2="285.0313"/><text fill="#000000" font-family="sans-serif" font-size="13" font-weight="bold" lengthAdjust="spacingAndGlyphs" textLength="21" x="402.5" y="279.9653">[7]</text><text fill="#000000" font-family="sans-serif" font-size="13" font-weight="bold" lengthAdjust="spacingAndGlyphs" textLength="116" x="427.5" y="279.9653">CRITICAL EVENT</text><path d="M306,298.0313 L306,323.0313 L451,323.0313 L451,308.0313 L441,298.0313 L306,298.0313 " fill="#FBFB77" filter="url(#f18zq03ani7xpz)" style="stroke: #A80036; stroke-width: 1.0;"/><path d="M441,298.0313 L441,308.0313 L451,308.0313 L441,298.0313 " fill="#FBFB77" style="stroke: #A80036; stroke-width: 1.0;"/><text fill="#000000" font-family="sans-serif" font-size="13" lengthAdjust="spacingAndGlyphs" textLength="124" x="312" y="315.0981">Critical event triage</text><polygon fill="#A80036" points="629,349.2969,639,353.2969,629,357.2969,633,353.2969" style="stroke: #A80036; stroke-width: 1.0;"/><line style="stroke: #A80036; stroke-width: 1.0;" x1="380.5" x2="635" y1="353.2969" y2="353.2969"/><text fill="#000000" font-family="sans-serif" font-size="13" font-weight="bold" lengthAdjust="spacingAndGlyphs" textLength="21" x="387.5" y="348.231">[8]</text><text fill="#000000" font-family="sans-serif" font-size="13" lengthAdjust="spacingAndGlyphs" textLength="118" x="412.5" y="348.231">dispatch to handle</text><path d="M563,366.2969 L563,391.2969 L725,391.2969 L725,376.2969 L715,366.2969 L563,366.2969 " fill="#FBFB77" filter="url(#f18zq03ani7xpz)" style="stroke: #A80036; stroke-width: 1.0;"/><path d="M715,366.2969 L715,376.2969 L725,376.2969 L715,366.2969 " fill="#FBFB77" style="stroke: #A80036; stroke-width: 1.0;"/><text fill="#000000" font-family="sans-serif" font-size="13" lengthAdjust="spacingAndGlyphs" textLength="141" x="569" y="383.3638">Critical event handling</text><polygon fill="#A80036" points="453,417.5625,443,421.5625,453,425.5625,449,421.5625" style="stroke: #A80036; stroke-width: 1.0;"/><line style="stroke: #A80036; stroke-width: 1.0; stroke-dasharray: 2.0,2.0;" x1="447" x2="645" y1="421.5625" y2="421.5625"/><text fill="#000000" font-family="sans-serif" font-size="13" font-weight="bold" lengthAdjust="spacingAndGlyphs" textLength="21" x="459" y="416.4966">[9]</text><text fill="#000000" font-family="sans-serif" font-size="13" lengthAdjust="spacingAndGlyphs" textLength="155" x="484" y="416.4966">sdei_dispatch_event(ev)</text><path d="M353,434.5625 L353,459.5625 L516,459.5625 L516,444.5625 L506,434.5625 L353,434.5625 " fill="#FBFB77" filter="url(#f18zq03ani7xpz)" style="stroke: #A80036; stroke-width: 1.0;"/><path d="M506,434.5625 L506,444.5625 L516,444.5625 L506,434.5625 " fill="#FBFB77" style="stroke: #A80036; stroke-width: 1.0;"/><text fill="#000000" font-family="sans-serif" font-size="13" lengthAdjust="spacingAndGlyphs" textLength="142" x="359" y="451.6294">Prepare SDEI dispatch</text><polygon fill="#A80036" points="82.5,485.8281,72.5,489.8281,82.5,493.8281,78.5,489.8281" style="stroke: #A80036; stroke-width: 1.0;"/><line style="stroke: #A80036; stroke-width: 1.0;" x1="76.5" x2="431" y1="489.8281" y2="489.8281"/><text fill="#000000" font-family="sans-serif" font-size="13" font-weight="bold" lengthAdjust="spacingAndGlyphs" textLength="30" x="88.5" y="484.7622">[10]</text><text fill="#000000" font-family="sans-serif" font-size="13" lengthAdjust="spacingAndGlyphs" textLength="54" x="122.5" y="484.7622">dispatch</text><path d="M8,502.8281 L8,527.8281 L111,527.8281 L111,512.8281 L101,502.8281 L8,502.8281 " fill="#FBFB77" filter="url(#f18zq03ani7xpz)" style="stroke: #A80036; stroke-width: 1.0;"/><path d="M101,502.8281 L101,512.8281 L111,512.8281 L101,502.8281 " fill="#FBFB77" style="stroke: #A80036; stroke-width: 1.0;"/><text fill="#000000" font-family="sans-serif" font-size="13" lengthAdjust="spacingAndGlyphs" textLength="82" x="14" y="519.895">SDEI handler</text><polygon fill="#A80036" points="420,554.0938,430,558.0938,420,562.0938,424,558.0938" style="stroke: #A80036; stroke-width: 1.0;"/><line style="stroke: #A80036; stroke-width: 1.0;" x1="66.5" x2="426" y1="558.0938" y2="558.0938"/><text fill="#000000" font-family="sans-serif" font-size="13" font-weight="bold" lengthAdjust="spacingAndGlyphs" textLength="30" x="73.5" y="553.0278">[11]</text><text fill="#000000" font-family="sans-serif" font-size="13" font-weight="bold" lengthAdjust="spacingAndGlyphs" textLength="184" x="107.5" y="553.0278">SDEI_EVENT_COMPLETE()</text><path d="M347,571.0938 L347,596.0938 L522,596.0938 L522,581.0938 L512,571.0938 L347,571.0938 " fill="#FBFB77" filter="url(#f18zq03ani7xpz)" style="stroke: #A80036; stroke-width: 1.0;"/><path d="M512,571.0938 L512,581.0938 L522,581.0938 L512,571.0938 " fill="#FBFB77" style="stroke: #A80036; stroke-width: 1.0;"/><text fill="#000000" font-family="sans-serif" font-size="13" lengthAdjust="spacingAndGlyphs" textLength="154" x="353" y="588.1606">Complete SDEI dispatch</text><polygon fill="#A80036" points="629,622.3594,639,626.3594,629,630.3594,633,626.3594" style="stroke: #A80036; stroke-width: 1.0;"/><line style="stroke: #A80036; stroke-width: 1.0; stroke-dasharray: 2.0,2.0;" x1="437" x2="635" y1="626.3594" y2="626.3594"/><text fill="#000000" font-family="sans-serif" font-size="13" font-weight="bold" lengthAdjust="spacingAndGlyphs" textLength="30" x="444" y="621.2935">[12]</text><text fill="#000000" font-family="sans-serif" font-size="13" lengthAdjust="spacingAndGlyphs" textLength="39" x="478" y="621.2935">return</text><polygon fill="#A80036" points="391.5,651.4922,381.5,655.4922,391.5,659.4922,387.5,655.4922" style="stroke: #A80036; stroke-width: 1.0;"/><line style="stroke: #A80036; stroke-width: 1.0;" x1="385.5" x2="645" y1="655.4922" y2="655.4922"/><text fill="#000000" font-family="sans-serif" font-size="13" font-weight="bold" lengthAdjust="spacingAndGlyphs" textLength="30" x="397.5" y="650.4263">[13]</text><text fill="#000000" font-family="sans-serif" font-size="13" lengthAdjust="spacingAndGlyphs" textLength="125" x="431.5" y="650.4263">error handling done</text><polygon fill="#A80036" points="77.5,680.625,67.5,684.625,77.5,688.625,73.5,684.625" style="stroke: #A80036; stroke-width: 1.0;"/><line style="stroke: #A80036; stroke-width: 1.0;" x1="71.5" x2="379.5" y1="684.625" y2="684.625"/><text fill="#000000" font-family="sans-serif" font-size="13" font-weight="bold" lengthAdjust="spacingAndGlyphs" textLength="30" x="83.5" y="679.5591">[14]</text><text fill="#000000" font-family="sans-serif" font-size="13" lengthAdjust="spacingAndGlyphs" textLength="197" x="117.5" y="679.5591">resumes preempted execution</text><text fill="#000000" font-family="sans-serif" font-size="11" lengthAdjust="spacingAndGlyphs" textLength="190" x="258.75" y="716.8354">&lt;&lt;Normal execution resumes&gt;&gt;</text></g></svg>